<?xml version="1.0" encoding="UTF-8"?>
<svg id="Layer_2" data-name="Layer 2" xmlns="http://www.w3.org/2000/svg" viewBox="0 0 308.9 267.85">
  <g id="Layer_1-2" data-name="Layer 1">
    <g>
      <path d="M2.81,1.99h17.46c11.64,0,19.52.45,23.64,1.35,4.12.9,7.48,3.19,10.08,6.88s3.9,9.58,3.9,17.67c0,7.38-.92,12.34-2.75,14.88-1.84,2.54-5.45,4.06-10.84,4.57,4.88,1.21,8.16,2.83,9.84,4.86,1.68,2.03,2.72,3.9,3.13,5.6s.62,6.38.62,14.03v25.02h-22.91v-31.52c0-5.08-.4-8.22-1.2-9.43-.8-1.21-2.9-1.82-6.3-1.82v42.77H2.81V1.99ZM27.48,18.22v21.09c2.77,0,4.72-.38,5.83-1.14s1.67-3.23,1.67-7.41v-5.21c0-3.01-.54-4.98-1.61-5.92s-3.04-1.41-5.89-1.41Z"/>
      <path d="M124.61,57.54c0,9.53-.23,16.28-.67,20.24-.45,3.97-1.86,7.59-4.22,10.87-2.36,3.28-5.56,5.8-9.58,7.56-4.02,1.76-8.71,2.64-14.06,2.64s-9.64-.83-13.68-2.49-7.29-4.15-9.76-7.47c-2.46-3.32-3.93-6.93-4.39-10.84-.47-3.91-.7-10.74-.7-20.51v-16.23c0-9.53.22-16.28.67-20.24.45-3.96,1.85-7.59,4.22-10.87,2.36-3.28,5.56-5.8,9.58-7.56,4.02-1.76,8.71-2.64,14.06-2.64,5.08,0,9.64.83,13.68,2.49,4.04,1.66,7.29,4.15,9.76,7.47,2.46,3.32,3.93,6.93,4.39,10.84.47,3.91.7,10.74.7,20.51v16.23ZM99.94,26.37c0-4.41-.25-7.24-.73-8.47-.49-1.23-1.49-1.85-3.02-1.85-1.29,0-2.28.5-2.96,1.49-.68,1-1.03,3.94-1.03,8.82v44.3c0,5.51.22,8.91.67,10.2.45,1.29,1.49,1.93,3.13,1.93s2.75-.74,3.22-2.23c.47-1.48.7-5.02.7-10.61V26.37Z"/>
      <path d="M177.26,1.99l14.11,94.86h-25.21l-1.32-17.05h-8.82l-1.48,17.05h-25.5L141.6,1.99h35.65ZM164.18,62.99c-1.25-10.74-2.5-24.03-3.76-39.84-2.51,18.17-4.09,31.45-4.73,39.84h8.49Z"/>
      <path d="M248.62,30.7h-22.91v-7.03c0-3.28-.29-5.37-.88-6.27-.59-.9-1.56-1.35-2.93-1.35-1.49,0-2.61.61-3.37,1.82-.76,1.21-1.14,3.05-1.14,5.51,0,3.17.43,5.55,1.28,7.15.82,1.6,3.14,3.54,6.97,5.8,10.98,6.52,17.9,11.87,20.75,16.05,2.85,4.18,4.28,10.92,4.28,20.21,0,6.76-.79,11.74-2.37,14.94-1.58,3.2-4.64,5.89-9.17,8.06-4.53,2.17-9.81,3.25-15.82,3.25-6.6,0-12.24-1.25-16.9-3.75-4.67-2.5-7.73-5.68-9.17-9.55-1.45-3.87-2.17-9.35-2.17-16.46v-6.21h22.91v11.54c0,3.56.32,5.84.97,6.86.64,1.02,1.79,1.52,3.43,1.52s2.86-.64,3.66-1.93c.8-1.29,1.2-3.2,1.2-5.74,0-5.59-.76-9.24-2.29-10.96-1.56-1.72-5.41-4.59-11.54-8.61-6.13-4.06-10.2-7.01-12.19-8.85-1.99-1.84-3.64-4.37-4.95-7.62-1.31-3.24-1.96-7.38-1.96-12.42,0-7.27.93-12.58,2.78-15.94,1.85-3.36,4.85-5.99,8.99-7.88,4.14-1.89,9.14-2.84,15-2.84,6.41,0,11.87,1.04,16.38,3.11,4.51,2.07,7.5,4.68,8.96,7.82,1.46,3.15,2.2,8.49,2.2,16.03v3.75Z"/>
      <path d="M308.9,1.99v18.98h-14.65v75.88h-24.67V20.98h-14.59V1.99h53.91Z"/>
      <path d="M59.53,111.99v94.86h-24.67v-39.84h-7.38v39.84H2.81v-94.86h24.67v33.93h7.38v-33.93h24.67Z"/>
      <path d="M126.3,167.54c0,9.53-.23,16.28-.67,20.24-.45,3.97-1.86,7.59-4.22,10.87-2.36,3.28-5.56,5.8-9.58,7.56-4.02,1.76-8.71,2.64-14.06,2.64s-9.64-.83-13.68-2.49c-4.04-1.66-7.29-4.15-9.76-7.47s-3.93-6.93-4.39-10.84c-.47-3.91-.7-10.74-.7-20.51v-16.23c0-9.53.22-16.28.67-20.24.45-3.96,1.85-7.59,4.22-10.87,2.36-3.28,5.56-5.8,9.58-7.56,4.02-1.76,8.71-2.64,14.06-2.64,5.08,0,9.64.83,13.68,2.49,4.04,1.66,7.29,4.15,9.76,7.47,2.46,3.32,3.93,6.93,4.39,10.84.47,3.91.7,10.74.7,20.51v16.23ZM101.63,136.37c0-4.41-.25-7.24-.73-8.47-.49-1.23-1.49-1.85-3.02-1.85-1.29,0-2.28.5-2.96,1.49-.68,1-1.03,3.94-1.03,8.82v44.3c0,5.51.22,8.91.67,10.2.45,1.29,1.49,1.93,3.13,1.93s2.75-.74,3.22-2.23c.47-1.48.7-5.02.7-10.61v-43.59Z"/>
      <path d="M192.07,111.99v63.4c0,7.19-.23,12.24-.7,15.15-.47,2.91-1.86,5.9-4.16,8.97s-5.34,5.39-9.11,6.97-8.21,2.37-13.33,2.37c-5.66,0-10.66-.94-15-2.81s-7.58-4.32-9.73-7.32-3.42-6.18-3.81-9.52-.59-10.36-.59-21.06v-56.13h24.67v71.13c0,4.14.22,6.79.67,7.94.45,1.15,1.36,1.73,2.72,1.73,1.56,0,2.57-.63,3.02-1.9.45-1.27.67-4.27.67-8.99v-69.9h24.67Z"/>
      <path d="M254.38,140.7h-22.91v-7.03c0-3.28-.29-5.37-.88-6.27-.59-.9-1.56-1.35-2.93-1.35-1.49,0-2.61.61-3.37,1.82-.76,1.21-1.14,3.05-1.14,5.51,0,3.17.43,5.55,1.28,7.15.82,1.6,3.14,3.54,6.97,5.8,10.98,6.52,17.9,11.87,20.75,16.05,2.85,4.18,4.28,10.92,4.28,20.21,0,6.76-.79,11.74-2.37,14.94-1.58,3.2-4.64,5.89-9.17,8.06-4.53,2.17-9.81,3.25-15.82,3.25-6.6,0-12.24-1.25-16.9-3.75-4.67-2.5-7.73-5.68-9.17-9.55-1.45-3.87-2.17-9.35-2.17-16.46v-6.21h22.91v11.54c0,3.56.32,5.84.97,6.86.64,1.02,1.79,1.52,3.43,1.52s2.86-.64,3.66-1.93c.8-1.29,1.2-3.2,1.2-5.74,0-5.59-.76-9.24-2.29-10.96-1.56-1.72-5.41-4.59-11.54-8.61-6.13-4.06-10.2-7.01-12.19-8.85-1.99-1.84-3.64-4.37-4.95-7.62-1.31-3.24-1.96-7.38-1.96-12.42,0-7.27.93-12.58,2.78-15.94,1.85-3.36,4.85-5.99,8.99-7.88,4.14-1.89,9.14-2.84,15-2.84,6.41,0,11.87,1.04,16.38,3.11,4.51,2.07,7.5,4.68,8.96,7.82,1.46,3.15,2.2,8.49,2.2,16.03v3.75Z"/>
      <path d="M264.66,111.99h41.13v18.98h-16.46v17.99h15.41v18.05h-15.41v20.86h18.11v18.98h-42.77v-94.86Z"/>
      <path d="M29.15,240.08h-12.33v-8.24c0-2.4-.13-3.89-.4-4.49s-.84-.89-1.74-.89c-1.02,0-1.66.36-1.93,1.08s-.41,2.29-.41,4.69v22.03c0,2.3.14,3.81.41,4.51s.89,1.05,1.85,1.05,1.52-.35,1.8-1.06.42-2.36.42-4.96v-5.96h12.33v1.85c0,4.91-.35,8.39-1.04,10.44-.69,2.05-2.23,3.85-4.6,5.4-2.37,1.54-5.3,2.32-8.77,2.32s-6.59-.65-8.94-1.96-3.9-3.12-4.66-5.43-1.14-5.8-1.14-10.44v-13.86c0-3.42.12-5.98.35-7.69s.93-3.35,2.09-4.94,2.77-2.83,4.83-3.74,4.43-1.36,7.1-1.36c3.63,0,6.63.7,8.99,2.11s3.92,3.16,4.66,5.25,1.11,5.36,1.11,9.79v4.51Z"/>
      <path d="M62.19,247.2c0,4.77-.11,8.14-.34,10.12s-.93,3.79-2.11,5.43-2.78,2.9-4.79,3.78-4.36,1.32-7.03,1.32-4.82-.42-6.84-1.25-3.65-2.08-4.88-3.74-1.96-3.47-2.2-5.42-.35-5.37-.35-10.25v-8.12c0-4.77.11-8.14.34-10.12s.93-3.79,2.11-5.43,2.78-2.9,4.79-3.78,4.36-1.32,7.03-1.32,4.82.42,6.84,1.25,3.65,2.08,4.88,3.74,1.96,3.47,2.2,5.42.35,5.37.35,10.25v8.12ZM49.86,231.61c0-2.21-.12-3.62-.37-4.23s-.75-.92-1.51-.92c-.64,0-1.14.25-1.48.75s-.51,1.97-.51,4.41v22.15c0,2.75.11,4.45.34,5.1s.75.97,1.57.97,1.38-.37,1.61-1.11.35-2.51.35-5.3v-21.8Z"/>
      <path d="M67.22,219.42h12.42c3.36,0,5.94.26,7.75.79,1.81.53,3.16,1.29,4.07,2.29s1.52,2.2,1.85,3.62.48,3.61.48,6.58v4.13c0,3.03-.31,5.23-.94,6.62-.63,1.39-1.77,2.45-3.44,3.19s-3.85,1.11-6.55,1.11h-3.31v19.1h-12.33v-47.43ZM79.56,227.54v12.07c.35.02.65.03.91.03,1.13,0,1.92-.28,2.36-.83s.66-1.71.66-3.47v-3.9c0-1.62-.25-2.68-.76-3.16-.51-.49-1.56-.73-3.16-.73Z"/>
      <path d="M97.77,219.42h20.57v9.49h-8.23v8.99h7.71v9.02h-7.71v10.43h9.05v9.49h-21.39v-47.43Z"/>
      <path d="M150.67,219.42v47.43h-10.81l-6.42-21.56v21.56h-10.31v-47.43h10.31l6.91,21.36v-21.36h10.31Z"/>
      <path d="M184.42,219.42v47.43h-12.33v-19.92h-3.69v19.92h-12.33v-47.43h12.33v16.96h3.69v-16.96h12.33Z"/>
      <path d="M211.12,219.42l7.05,47.43h-12.61l-.66-8.53h-4.41l-.74,8.53h-12.75l6.29-47.43h17.83ZM204.58,249.92c-.62-5.37-1.25-12.01-1.88-19.92-1.26,9.08-2.05,15.72-2.37,19.92h4.25Z"/>
      <path d="M249,236.89h-12.33v-4.31c0-2.71-.12-4.41-.35-5.1s-.79-1.03-1.67-1.03c-.76,0-1.28.29-1.55.88-.27.59-.41,2.09-.41,4.51v22.76c0,2.13.14,3.53.41,4.2.27.67.82,1.01,1.64,1.01.9,0,1.51-.38,1.83-1.14s.48-2.25.48-4.45v-5.62h-2.49v-7.21h14.44v25.46h-7.75l-1.14-3.4c-.84,1.46-1.9,2.56-3.18,3.3s-2.79,1.1-4.53,1.1c-2.07,0-4.01-.5-5.82-1.51-1.81-1.01-3.18-2.25-4.12-3.74s-1.52-3.04-1.76-4.67-.35-4.08-.35-7.34v-14.09c0-4.53.24-7.82.73-9.87.49-2.05,1.89-3.93,4.2-5.64s5.31-2.56,8.98-2.56,6.61.74,8.99,2.23c2.38,1.48,3.94,3.25,4.66,5.29.72,2.04,1.08,5,1.08,8.89v2.05Z"/>
      <path d="M254.21,219.42h20.57v9.49h-8.23v8.99h7.71v9.02h-7.71v10.43h9.05v9.49h-21.39v-47.43Z"/>
      <path d="M307.11,219.42v47.43h-10.81l-6.42-21.56v21.56h-10.31v-47.43h10.31l6.91,21.36v-21.36h10.31Z"/>
    </g>
  </g>
</svg>